<?xml version="1.0" encoding="utf-8"?>
<svg version="1.1" xmlns="http://www.w3.org/2000/svg" width="1920" height="165">
  <g style="" transform="matrix(1.733279, 0, 0, 1.821455, 1371.873276, 1064.238392)">
    <path d="M 0.612 0 C 342.56 0 684.515 0 1036.82 0 C 1034.21 289.749 1031.61 579.499 1028.92 878.029 C 686.97 878.029 345.024 878.029 -7.287 878.029 C -4.681 588.279 -2.074 298.53 0.612 0 Z" fill="#2A69EF" style=""/>
    <path d="M 243.46 72.875 C 251.081 72.917 251.081 72.917 258.856 72.956 C 310.259 74.031 351.466 82.166 390.606 112.629 C 440.617 160.766 439.183 220.593 437.977 281.319 C 404.848 281.319 371.716 281.319 337.582 281.319 C 336.809 264.567 336.809 264.567 336.015 247.475 C 333.616 205.051 333.616 205.051 317.502 165.278 C 290.456 145.683 256.086 145.668 222.126 148.087 C 201.862 151.954 189.438 158.325 176.356 172.52 C 149.425 213.143 155.354 272.161 155.539 317.465 C 155.529 323.59 155.52 329.713 155.509 335.833 C 155.494 348.551 155.514 361.269 155.565 373.986 C 155.62 390.103 155.585 406.219 155.524 422.336 C 155.489 434.946 155.503 447.552 155.529 460.162 C 155.534 466.097 155.524 472.033 155.503 477.969 C 154.348 552.055 154.348 552.055 181.969 620.85 C 207.384 640.569 233.637 639.276 266.441 638.931 C 285.778 637.852 297.213 635.54 312.484 625.149 C 342.786 589.833 344.068 546.755 345.739 504.271 C 345.935 500.158 346.131 496.049 346.327 491.816 C 346.794 481.819 347.215 471.826 347.621 461.831 C 317.803 461.831 287.987 461.831 257.266 461.831 C 257.266 439.138 257.266 416.444 257.266 393.064 C 318.557 393.064 379.848 393.064 442.997 393.064 C 442.997 496.601 442.997 600.134 442.997 706.808 C 421.461 706.808 399.928 706.808 377.74 706.808 C 368.638 699.014 369.332 686.986 367.39 676.452 C 366.5 671.706 365.618 666.957 364.703 662.067 C 363.699 656.557 363.699 656.557 362.681 650.935 C 359.99 654.656 357.3 658.379 354.522 662.217 C 336.538 684.992 316.951 704.693 285.326 713.371 C 235.459 721.162 181.617 719.89 136.791 698.212 C 84.62 666.434 62.885 626.743 51.453 573.574 C 47.986 546.111 48.617 518.428 48.789 490.841 C 48.774 482.975 48.754 475.111 48.728 467.25 C 48.704 450.861 48.743 434.479 48.839 418.095 C 48.953 397.258 48.884 376.428 48.769 355.592 C 48.692 339.38 48.718 323.172 48.769 306.961 C 48.783 299.291 48.769 291.615 48.718 283.939 C 48.412 219.672 53.938 159.619 106.672 109.407 C 144.656 78.313 192.807 72.586 243.46 72.875 Z" fill="#FAFBFE" style=""/>
    <g transform="matrix(6.568376, 0, 0, 4.34788, -2665.240694, 28.877123)" style="">
      <path d="M 509 10 C 515.93 10 522.86 10 530 10 C 536.157 37.409 542.084 64.865 547.948 92.338 C 549.205 98.226 550.466 104.114 551.727 110.002 C 552.709 114.588 553.689 119.176 554.669 123.763 C 555.133 125.937 555.598 128.111 556.064 130.285 C 556.71 133.297 557.352 136.309 557.994 139.322 C 558.183 140.203 558.373 141.084 558.568 141.992 C 558.743 142.817 558.918 143.641 559.098 144.49 C 559.325 145.55 559.325 145.55 559.556 146.631 C 560.138 149.737 560.553 152.872 561 156 C 554.4 156 547.8 156 541 156 C 538.5 143.5 538.5 143.5 536 131 C 535.81 130.197 535.621 129.393 535.426 128.565 C 535 126 535 126 535 119 C 525.1 119 515.2 119 505 119 C 504.67 122.3 504.34 125.6 504 129 C 503.651 131.131 503.27 133.258 502.844 135.375 C 502.626 136.462 502.408 137.548 502.184 138.668 C 501.958 139.768 501.732 140.867 501.5 142 C 501.274 143.131 501.049 144.261 500.816 145.426 C 499.136 153.728 499.136 153.728 498 156 C 491.73 156 485.46 156 479 156 C 479.59 150.692 480.128 145.861 481.221 140.717 C 481.467 139.552 481.712 138.386 481.965 137.186 C 482.232 135.937 482.5 134.689 482.776 133.402 C 483.062 132.051 483.348 130.7 483.633 129.349 C 484.404 125.706 485.18 122.065 485.957 118.423 C 486.771 114.608 487.579 110.792 488.388 106.976 C 489.918 99.762 491.452 92.548 492.988 85.334 C 494.738 77.117 496.482 68.899 498.226 60.681 C 501.812 43.786 505.404 26.893 509 10 Z" fill="#FAFBFE"/>
      <path d="M 519 43 C 519.66 43 520.32 43 521 43 C 521.156 43.899 521.311 44.798 521.471 45.724 C 522.207 49.963 522.946 54.2 523.687 58.437 C 523.821 59.203 523.955 59.969 524.094 60.758 C 526.077 72.064 528.19 83.331 530.526 94.57 C 530.721 95.515 530.916 96.46 531.117 97.434 C 531.288 98.249 531.46 99.064 531.636 99.904 C 532 102 532 102 532 105 C 524.08 105 516.16 105 508 105 C 509.125 96 509.125 96 509.924 91.673 C 510.101 90.709 510.278 89.745 510.46 88.751 C 510.743 87.229 510.743 87.229 511.031 85.676 C 511.227 84.611 511.423 83.547 511.625 82.45 C 512.248 79.071 512.874 75.692 513.5 72.312 C 513.921 70.031 514.341 67.749 514.762 65.467 C 515.532 61.291 516.303 57.114 517.076 52.939 C 517.231 52.103 517.385 51.268 517.545 50.408 C 518.012 47.935 518.502 45.467 519 43 Z" fill="#2F6CEF"/>
    </g>
  </g>
</svg>